<?xml version="1.0" encoding="UTF-8" standalone="no"?>
<svg
   xmlns:dc="http://purl.org/dc/elements/1.1/"
   xmlns:cc="http://creativecommons.org/ns#"
   xmlns:rdf="http://www.w3.org/1999/02/22-rdf-syntax-ns#"
   xmlns:svg="http://www.w3.org/2000/svg"
   xmlns="http://www.w3.org/2000/svg"
   xmlns:xlink="http://www.w3.org/1999/xlink"
   xmlns:sodipodi="http://sodipodi.sourceforge.net/DTD/sodipodi-0.dtd"
   xmlns:inkscape="http://www.inkscape.org/namespaces/inkscape"
   inkscape:export-ydpi="96"
   inkscape:export-xdpi="96"
   inkscape:export-filename="/home/initialxy/git/initialxy-file-server/frontend/src/assets/icon.png"
   sodipodi:docname="logo_circle.svg"
   inkscape:version="1.0 (4035a4fb49, 2020-05-01)"
   id="svg8"
   version="1.1"
   viewBox="0 0 132.29166 132.29166"
   height="500"
   width="500">
  <defs
     id="defs2">
    <linearGradient
       id="linearGradient888"
       inkscape:collect="always">
      <stop
         id="stop884"
         offset="0"
         style="stop-color:#01a4eb;stop-opacity:1" />
      <stop
         id="stop886"
         offset="1"
         style="stop-color:#b188ff;stop-opacity:1" />
    </linearGradient>
    <linearGradient
       gradientTransform="matrix(0.2047598,0,0,0.2047598,-24.064457,-57.474495)"
       gradientUnits="userSpaceOnUse"
       y2="777.20068"
       x2="759.68506"
       y1="427.68405"
       x1="117.3444"
       id="linearGradient890"
       xlink:href="#linearGradient888"
       inkscape:collect="always" />
  </defs>
  <sodipodi:namedview
     inkscape:window-maximized="0"
     inkscape:window-y="22"
     inkscape:window-x="0"
     inkscape:window-height="2112"
     inkscape:window-width="3836"
     units="px"
     showgrid="false"
     inkscape:document-rotation="0"
     inkscape:current-layer="layer1"
     inkscape:document-units="mm"
     inkscape:cy="275.70984"
     inkscape:cx="221.53317"
     inkscape:zoom="1.4"
     inkscape:pageshadow="2"
     inkscape:pageopacity="0.0"
     borderopacity="1.0"
     bordercolor="#666666"
     pagecolor="#ffffff"
     id="base" />
  <metadata
     id="metadata5">
    <rdf:RDF>
      <cc:Work
         rdf:about="">
        <dc:format>image/svg+xml</dc:format>
        <dc:type
           rdf:resource="http://purl.org/dc/dcmitype/StillImage" />
        <dc:title />
      </cc:Work>
    </rdf:RDF>
  </metadata>
  <g
     id="layer1"
     inkscape:groupmode="layer"
     inkscape:label="Layer 1">
    <circle
       inkscape:export-ydpi="96"
       inkscape:export-xdpi="96"
       r="104"
       cy="66.145836"
       cx="66.145836"
       id="path835"
       style="opacity:1;fill:#ffffff;fill-opacity:1;stroke-width:11.2252;stroke-linecap:round;stroke-linejoin:round" />
    <path
       d="m 27.757768,19.525987 c -1.679836,8.4e-5 -3.314044,0.546689 -4.655885,1.557294 C 8.8920196,31.785828 0.52670336,48.55895 0.52671522,66.348396 0.52679528,80.940835 6.1508226,94.847309 16.020073,105.28355 c 2.936698,3.10544 7.834809,3.24224 10.940252,0.30555 3.105434,-2.9367 3.242228,-7.834807 0.305541,-10.940256 -7.171337,-7.583332 -11.26133,-17.684168 -11.26139,-28.300448 -9e-6,-12.109713 5.316701,-23.545122 14.469159,-31.344647 h 56.157374 c 4.274047,-3.8e-5 7.738849,-3.464826 7.738887,-7.73888 -3.8e-5,-4.274047 -3.46484,-7.73884 -7.738887,-7.738882 z m 82.834532,5.060206 c -0.009,1.26e-4 -0.0184,2.01e-4 -0.0277,4.01e-4 -1.94856,0.02144 -3.8173,0.777245 -5.23297,2.116385 -3.10531,2.936809 -3.24193,7.834919 -0.30514,10.940251 7.17133,7.583327 11.26054,17.68379 11.26059,28.300047 1e-5,12.133991 -5.38774,23.543707 -14.57394,31.344248 H 45.661852 c -4.274205,-1.78e-4 -7.73924,3.464675 -7.73928,7.738875 -1.8e-4,4.27437 3.464919,7.73947 7.73928,7.73928 H 104.5351 c 1.67965,-4e-5 3.31369,-0.54652 4.65549,-1.55689 14.20985,-10.70256 22.57436,-27.476051 22.57436,-45.265513 -8e-5,-14.59243 -5.62371,-28.498924 -15.49296,-38.935159 -1.47525,-1.560305 -3.53244,-2.437534 -5.67969,-2.421925 z M 40.365294,53.763264 a 12.382325,12.382325 0 0 0 -12.346777,12.382372 12.382325,12.382325 0 0 0 12.382368,12.382372 12.382325,12.382325 0 0 0 12.38237,-12.382372 12.382325,12.382325 0 0 0 -12.38237,-12.382372 12.382325,12.382325 0 0 0 -0.03559,0 z m 34.26407,0 A 12.382325,12.382325 0 0 0 62.282592,66.145636 12.382325,12.382325 0 0 0 74.66456,78.528008 12.382325,12.382325 0 0 0 87.046932,66.145636 12.382325,12.382325 0 0 0 74.66456,53.763264 a 12.382325,12.382325 0 0 0 -0.03521,0 z"
       style="color:#000000;font-style:normal;font-variant:normal;font-weight:normal;font-stretch:normal;font-size:medium;line-height:normal;font-family:sans-serif;font-variant-ligatures:normal;font-variant-position:normal;font-variant-caps:normal;font-variant-numeric:normal;font-variant-alternates:normal;font-variant-east-asian:normal;font-feature-settings:normal;font-variation-settings:normal;text-indent:0;text-align:start;text-decoration:none;text-decoration-line:none;text-decoration-style:solid;text-decoration-color:#000000;letter-spacing:normal;word-spacing:normal;text-transform:none;writing-mode:lr-tb;direction:ltr;text-orientation:mixed;dominant-baseline:auto;baseline-shift:baseline;text-anchor:start;white-space:normal;shape-padding:0;shape-margin:0;inline-size:0;clip-rule:nonzero;display:inline;overflow:visible;visibility:visible;opacity:1;isolation:auto;mix-blend-mode:normal;color-interpolation:sRGB;color-interpolation-filters:linearRGB;solid-color:#000000;solid-opacity:1;vector-effect:none;fill:url(#linearGradient890);fill-opacity:1;fill-rule:nonzero;stroke:none;stroke-width:15.4779;stroke-linecap:round;stroke-linejoin:round;stroke-miterlimit:4;stroke-dasharray:none;stroke-dashoffset:0;stroke-opacity:1;color-rendering:auto;image-rendering:auto;shape-rendering:auto;text-rendering:auto;enable-background:accumulate;stop-color:#000000;stop-opacity:1"
       id="path865" />
  </g>
</svg>
